<?xml version="1.0" encoding="UTF-8"?>
<svg width="60px" height="75px" viewBox="0 0 60 75" version="1.1" xmlns="http://www.w3.org/2000/svg" xmlns:xlink="http://www.w3.org/1999/xlink">
    <title>编组 9</title>
    <defs>
        <filter id="filter-1">
            <feColorMatrix in="SourceGraphic" type="matrix" values="0 0 0 0 1.000000 0 0 0 0 1.000000 0 0 0 0 1.000000 0 0 0 1.000000 0"></feColorMatrix>
        </filter>
    </defs>
    <g id="页面-1" stroke="none" stroke-width="1" fill="none" fill-rule="evenodd">
        <g id="文档中心" transform="translate(-464.000000, -127.000000)">
            <g id="编组-5" transform="translate(430.000000, 127.000000)">
                <g id="编组-7" transform="translate(34.000000, 0.000000)">
                    <g id="编组-9">
                        <g id="编组-4" transform="translate(0.246914, 0.000000)">
                            <path d="M3,0 L42.0736084,0 L42.0736084,0 L60,17.878418 L60,72 C60,73.6568542 58.6568542,75 57,75 L3,75 C1.34314575,75 2.02906125e-16,73.6568542 0,72 L0,3 C-2.02906125e-16,1.34314575 1.34314575,3.04359188e-16 3,0 Z" id="矩形" fill="#FD913B"></path>
                            <path d="M42.4814815,0 L60.2592593,17.7777778 L46.4814815,17.7777778 C44.2723425,17.7777778 42.4814815,15.9869168 42.4814815,13.7777778 L42.4814815,0 L42.4814815,0 Z" id="矩形" fill="#FEBBA1"></path>
                            <path d="M42.2361626,47.6718213 C39.8478517,47.4985525 37.5479967,46.632208 35.6904215,45.0727881 C32.0637271,45.852498 28.6139447,46.9787458 25.1641622,48.3648969 C22.4220274,53.1297912 19.8568046,55.5555556 17.6454055,55.5555556 C17.2031258,55.5555556 16.67239,55.4689211 16.3185662,55.2090178 C15.3455506,54.7758456 14.8148148,53.8228667 14.8148148,52.8698878 C14.8148148,52.0901779 14.9917267,49.9243168 23.395043,46.3723047 C25.3410741,42.906927 26.8448254,39.3549149 28.0832089,35.6296339 C27.0217374,33.5504073 24.7218824,28.4389752 26.3140897,25.8399419 C26.8448254,24.8869631 27.906297,24.3671564 29.0562245,24.4537908 C29.9407841,24.4537908 30.8253437,24.886963 31.3560794,25.5800386 C32.5060069,27.1394585 32.417551,30.4315673 30.9137996,35.2830961 C32.329095,37.8821294 34.1866702,40.2212593 36.3980692,42.2138515 C38.2556443,41.8673137 40.1132195,41.6074104 41.9707947,41.6074104 C46.1282248,41.6940448 46.7474166,43.6000025 46.6589606,44.7262503 C46.6589606,47.6718213 43.7399139,47.6718213 42.2361626,47.6718213 L42.2361626,47.6718213 Z M17.4684936,53.0431567 L17.7338615,52.9565223 C18.972245,52.5233501 19.9452605,51.6570057 20.6529082,50.5307579 C19.3260688,51.0505646 18.2645973,51.916909 17.4684936,53.0431567 Z M29.2331364,27.0528241 L28.9677685,27.0528241 C28.8793126,27.0528241 28.7024006,27.0528241 28.6139447,27.1394585 C28.2601208,28.6122441 28.5254887,30.171664 29.1446804,31.5578151 C29.6754162,30.0850296 29.6754162,28.5256096 29.2331364,27.0528241 L29.2331364,27.0528241 Z M29.8523281,39.6148182 L29.7638721,39.7880871 L29.6754162,39.7014527 C28.8793126,41.6940448 27.994753,43.686637 27.0217374,45.5925947 L27.1986493,45.5059603 L27.1986493,45.6792291 C29.1446804,44.9861536 31.2676235,44.3797125 33.2136546,43.9465403 L33.1251987,43.8599059 L33.3905665,43.8599059 C32.0637271,42.5603892 30.8253437,41.0876037 29.8523281,39.6148182 L29.8523281,39.6148182 Z M41.8823388,44.2064436 C41.0862351,44.2064436 40.3785874,44.2064436 39.5824838,44.3797125 C40.4670434,44.8128847 41.351603,44.9861536 42.2361626,45.0727881 C42.8553543,45.1594225 43.474546,45.0727881 44.0052818,44.8995192 C44.0052818,44.6396159 43.651458,44.2064436 41.8823388,44.2064436 Z" id="形状" fill="#FFFFFF" fill-rule="nonzero"></path>
                        </g>
                    </g>
                    <g filter="url(#filter-1)" id="pdf">
                        <g transform="translate(15.061728, 24.444444)"></g>
                    </g>
                </g>
            </g>
        </g>
    </g>
</svg>