<?xml version="1.0" encoding="UTF-8"?>
<svg width="24px" height="24px" viewBox="0 0 24 24" version="1.1" xmlns="http://www.w3.org/2000/svg" xmlns:xlink="http://www.w3.org/1999/xlink">
    <title>delete_fill</title>
    <defs>
        <linearGradient x1="50%" y1="16.9123805%" x2="50%" y2="74.7862736%" id="linearGradient-1">
            <stop stop-color="#FFFAFB" offset="0%"></stop>
            <stop stop-color="#FFE0E0" offset="100%"></stop>
        </linearGradient>
    </defs>
    <g id="牛腩设计部分" stroke="none" stroke-width="1" fill="none" fill-rule="evenodd">
        <g id="GIS系统-05" transform="translate(-1552.000000, -852.000000)">
            <g id="delete_fill" transform="translate(1552.000000, 852.000000)">
                <rect id="Rectangle" fill="#000000" fill-rule="nonzero" opacity="0" x="0" y="0" width="24" height="24"></rect>
                <path d="M15.23025,14.16975 C15.523099,14.462599 15.523099,14.937401 15.23025,15.23025 C14.937401,15.523099 14.462599,15.523099 14.16975,15.23025 L11.85,12.9105 L9.53025,15.23025 C9.38989865,15.3714069 9.19905723,15.4507761 9,15.4507761 C8.80094277,15.4507761 8.61010135,15.3714069 8.46975,15.23025 C8.17696355,14.9373751 8.17696355,14.4626249 8.46975,14.16975 L10.7895,11.85 L8.46975,9.53025 C8.18552084,9.23596583 8.18958572,8.76818642 8.47888607,8.47888607 C8.76818642,8.18958572 9.23596583,8.18552084 9.53025,8.46975 L11.85,10.7895 L14.16975,8.46975 C14.4640342,8.18552084 14.9318136,8.18958572 15.2211139,8.47888607 C15.5104143,8.76818642 15.5144792,9.23596583 15.23025,9.53025 L12.9105,11.85 L15.23025,14.16975 Z M12,3 C7.038,3 3,7.038 3,12 C3,16.96275 7.038,21 12,21 C16.96275,21 21,16.96275 21,12 C21,7.038 16.96275,3 12,3 Z" id="Shape" fill="url(#linearGradient-1)"></path>
            </g>
        </g>
    </g>
</svg>