<?xml version="1.0" encoding="UTF-8"?>
<svg width="24px" height="24px" viewBox="0 0 24 24" version="1.1" xmlns="http://www.w3.org/2000/svg" xmlns:xlink="http://www.w3.org/1999/xlink">
    <title>icon_map</title>
    <g id="牛腩设计部分" stroke="none" stroke-width="1" fill="none" fill-rule="evenodd">
        <g id="GIS系统-03" transform="translate(-1160.000000, -272.000000)" fill-rule="nonzero">
            <g id="Group-4" transform="translate(1144.000000, 272.000000)">
                <g id="Group-2" transform="translate(16.000000, 0.000000)">
                    <g id="定位">
                        <rect id="Rectangle" fill="#000000" opacity="0" x="0" y="0" width="24" height="24"></rect>
                        <path d="M11.868689,2.13455278 C12.8243451,2.13455278 13.7221764,2.31589383 14.5626385,2.67797634 C15.402669,3.0402987 16.1310312,3.52987875 16.747725,4.14633279 C17.3796486,4.77861609 17.8767836,5.51057583 18.2392018,6.34305141 C18.6011884,7.17552698 18.7826254,8.0697367 18.7826254,9.02539277 C18.7826254,10.3202029 18.4202071,11.7192224 17.6958023,13.2222593 C16.9710377,14.7252723 16.1771999,16.1166409 15.3140011,17.3959575 C14.4504906,18.6757778 13.3022451,20.1632253 11.8686411,21.8588517 C10.4349651,20.1632253 9.2864558,18.6757778 8.4231851,17.3959575 C7.55967457,16.1166409 6.76593272,14.7252723 6.04152788,13.2222593 C5.31676327,11.7192463 4.95468075,10.3202269 4.95468075,9.02539277 C4.95468075,8.0697367 5.13568603,7.17552698 5.49810431,6.34305141 C5.8600669,5.51057583 6.35720184,4.77861609 6.98946117,4.14633279 C7.60596319,3.52985475 8.33432536,3.0402747 9.17466759,2.67797634 C10.0148659,2.31589383 10.9126012,2.13455278 11.868689,2.13455278 L11.868689,2.13455278 Z M11.868689,11.4995073 C12.2076512,11.4995073 12.5277382,11.4341516 12.8283984,11.3029606 C13.1289626,11.1720813 13.3869317,10.9987748 13.6029532,10.7826814 C13.8341805,10.5514541 14.0153056,10.2855224 14.1463768,9.98486227 C14.2772321,9.68432203 14.3429475,9.36454683 14.3429475,9.02527287 C14.3429475,8.6864306 14.2772321,8.3662237 14.1463768,8.06568347 C14.0153057,7.76499933 13.8341805,7.5071022 13.6029532,7.29103268 C13.3869557,7.05980545 13.1289866,6.8827575 12.8283984,6.75921724 C12.5277382,6.63594082 12.2076512,6.5741587 11.868689,6.5741587 C11.529535,6.5741587 11.2097598,6.63594082 10.9090996,6.75921724 C10.6085354,6.88275748 10.3502066,7.05978145 10.1344489,7.29103268 C9.90322163,7.50712617 9.72190455,7.76511926 9.59114522,8.06568347 C9.45995416,8.36634363 9.39457448,8.6864306 9.39457448,9.02527287 C9.39457448,9.36454683 9.45995416,9.68432203 9.59114522,9.98486227 C9.72190455,10.2855224 9.90322163,10.5514541 10.1344489,10.7826814 C10.3502066,10.9987748 10.6085354,11.1722013 10.9090996,11.3029606 C11.2096399,11.4341516 11.529535,11.4995073 11.868689,11.4995073 L11.868689,11.4995073 Z" id="Shape" fill="#2A86FF"></path>
                    </g>
                </g>
            </g>
        </g>
    </g>
</svg>